<?xml version="1.0" encoding="utf-8"?>
<!-- Generator: Adobe Illustrator 22.1.0, SVG Export Plug-In . SVG Version: 6.00 Build 0)  -->
<svg version="1.1" id="Calque_1" xmlns="http://www.w3.org/2000/svg" xmlns:xlink="http://www.w3.org/1999/xlink" x="0px" y="0px"
	 viewBox="0 0 1024 1024" style="enable-background:new 0 0 1024 1024;" xml:space="preserve">
<style type="text/css">
	.st0{fill-rule:evenodd;clip-rule:evenodd;fill:#181616;}
	.st1{fill:#181616;}
</style>
<g>
	<path class="st0" d="M512,19.7c-278.7,0-504.7,226-504.7,504.7c0,223,144.6,412.2,345.2,479c25.2,4.7,34.5-11,34.5-24.3
		c0-12-0.5-51.8-0.7-94c-140.4,30.5-170.1-59.6-170.1-59.6c-23-58.3-56-73.9-56-73.9c-45.8-31.3,3.5-30.7,3.5-30.7
		c50.7,3.6,77.4,52,77.4,52c45,77.2,118.1,54.9,146.9,42c4.5-32.6,17.6-54.9,32-67.5c-112.1-12.8-230-56-230-249.4
		c0-55.1,19.7-100.1,52-135.5c-5.2-12.7-22.5-64.1,4.9-133.6c0,0,42.4-13.6,138.8,51.7c40.3-11.2,83.4-16.8,126.3-17
		c42.9,0.2,86.1,5.8,126.4,17c96.3-65.3,138.7-51.7,138.7-51.7c27.5,69.5,10.2,120.9,5,133.6C814.4,398,834,443,834,498.1
		c0,193.9-118.1,236.5-230.5,249c18.1,15.7,34.2,46.4,34.2,93.5c0,67.5-0.6,121.9-0.6,138.5c0,13.4,9.1,29.2,34.7,24.2
		c200.4-66.8,344.9-256,344.9-478.9C1016.7,245.7,790.8,19.7,512,19.7z"/>
	<path class="st1" d="M198.4,744.4c-1.1,2.5-5.1,3.3-8.7,1.5c-3.7-1.6-5.7-5.1-4.5-7.6c1.1-2.6,5-3.3,8.7-1.6
		C197.6,738.5,199.7,741.9,198.4,744.4L198.4,744.4z M192.2,739.8"/>
	<path class="st1" d="M218.9,767.2c-2.4,2.2-7.1,1.2-10.3-2.3c-3.3-3.5-3.9-8.2-1.5-10.5c2.5-2.2,7-1.2,10.4,2.3
		C220.7,760.3,221.4,765,218.9,767.2L218.9,767.2z M214.1,762.1"/>
	<path class="st1" d="M238.8,796.3c-3.1,2.2-8.2,0.1-11.3-4.4c-3.1-4.5-3.1-9.9,0.1-12c3.1-2.2,8.1-0.2,11.3,4.2
		C241.9,788.7,241.9,794.1,238.8,796.3L238.8,796.3z M238.8,796.3"/>
	<path class="st1" d="M266,824.4c-2.8,3.1-8.7,2.2-13-1.9c-4.4-4.1-5.6-9.8-2.9-12.9c2.8-3.1,8.7-2.2,13.1,1.9
		C267.7,815.5,269,821.4,266,824.4L266,824.4z M266,824.4"/>
	<path class="st1" d="M303.7,840.7c-1.2,4-6.9,5.7-12.6,4.1c-5.7-1.7-9.4-6.4-8.3-10.4c1.2-4,6.9-5.9,12.6-4.1
		C301.1,832.1,304.8,836.7,303.7,840.7L303.7,840.7z M303.7,840.7"/>
	<path class="st1" d="M345,843.7c0.1,4.2-4.7,7.6-10.7,7.7c-6,0.1-10.9-3.2-11-7.3c0-4.2,4.7-7.6,10.8-7.7
		C340,836.2,345,839.6,345,843.7L345,843.7z M345,843.7"/>
	<path class="st1" d="M383.4,837.2c0.7,4.1-3.5,8.2-9.4,9.3c-5.9,1.1-11.3-1.4-12-5.5c-0.7-4.2,3.5-8.3,9.4-9.4
		C377.3,830.6,382.6,833,383.4,837.2L383.4,837.2z M383.4,837.2"/>
</g>
</svg>
