<svg xmlns="http://www.w3.org/2000/svg" viewBox="0 0 512 512"><style type="text/css">  
	.st0{fill:#00C200;}
	.st1{fill:#221F20;fill-opacity:0.3;}
	.st2{fill:#FFFFFF;}
	.st3{fill:#00C300;}
</style><path class="st0" d="M512 395.1c0 64.6-52.3 116.9-116.9 116.9H116.9C52.3 512 0 459.7 0 395.1V117C0 52.4 52.4 0 117 0h276.3C458.9 0 512 53.1 512 118.7V395.1z"/><path class="st1" d="M408.2 154.2c-4.4-5.3-9.2-10.4-14.3-15.2 -21.8-20.3-47.2-34.1-75.6-42.7 -13.3-4-26.9-6.6-40.7-8.2 -10-1.1-20-1.6-30.1-1.3C237 87 226.4 88.2 215.8 90c-24.3 4.2-47.4 12-68.9 24.5 -22.2 12.9-41.2 29.3-55.5 50.8 -16.2 24.3-24.2 51-22.2 80.5 1 13.6 4 26.6 9.2 39.1 8.3 19.9 20.6 36.8 36.4 51.4 0.8 0.8 1.7 1.5 2.5 2.3L302.9 512c0 0 78.1 0 93.6 0 58 0 115-47.1 115-119.4 0-86.8 0-140.3 0-140.3L408.2 154.2z"/><path class="st2" d="M439.3 233.3c0.4 15-1.7 29.6-6.7 43.8 -5.6 15.7-14 29.8-24.5 42.7 -14 17.6-30.3 32.8-47.8 47 -29.2 23.6-60.1 45-92.8 63.7 -4.9 2.9-9.9 5.6-15.3 7.6 -2.3 0.9-4.6 1.6-7 1.9 -4.2 0.6-6.9-1.3-7.6-5.4 -0.3-1.3-0.1-2.6 0.1-4 1-6.2 2-12.2 3-18.3 0.7-4.6 1-9 0.4-13.6 -0.4-4-2.3-6.9-5.7-8.9 -3.9-2.1-8-3.6-12.3-4.3 -15.7-2.1-31.2-5.9-46.1-11.5 -23.2-8.6-44.1-20.8-62.3-37.7 -15.7-14.6-28.1-31.5-36.4-51.4 -5.2-12.5-8.2-25.5-9.2-39.1 -2-29.5 6-56.1 22.2-80.5 14.3-21.5 33.4-37.9 55.5-50.8 21.5-12.5 44.5-20.3 68.9-24.5 10.6-1.9 21.2-3 31.8-3.1 10-0.3 20 0.1 30.1 1.3 13.7 1.6 27.3 4.2 40.7 8.2 28.3 8.6 53.8 22.3 75.6 42.7 13 12.2 23.8 25.9 31.6 41.9 7.9 15.6 12.5 32.2 13.3 49.7C439.2 231.5 439.3 232.3 439.3 233.3z"/><path class="st3" d="M289.3 248.4c0-1.7 0-2.7 0-3.7 0-13.7 0-27.5 0-41.2 0-0.9 0-1.6 0-2.4 0.1-2.4 1.4-3.9 3.7-3.9 4.3-0.1 8.6-0.1 12.9 0 2.3 0 3.4 1.4 3.6 3.7 0 0.6 0 1.3 0 1.9 0 25.6 0 51.3 0 76.9 0 0.6 0 1.3 0 1.9 -0.1 2.3-1.3 3.6-3.6 3.7 -4.3 0.1-8.6 0-12.9 0 -1.7 0-2.7-1-3.7-2.3 -3.9-5.3-7.7-10.5-11.6-15.7 -7.6-10.2-15.2-20.5-22.8-30.6 -0.4-0.6-0.9-1.4-1.7-1.9 -0.6 1-0.3 2.1-0.3 3.1 0 13.6 0 27.3 0 40.9 0 5.9-0.6 6.4-6.4 6.4 -3 0-6.2 0-9.2 0 -3.4 0-4.7-1.3-4.7-4.9 0-7.6 0-15.3 0-22.9 0-18.2 0-36.2 0-54.4 0-0.9 0-1.6 0-2.4 0.3-2 1.6-3.4 3.6-3.4 4.4-0.1 8.7 0 13.2 0 1.7 0 2.7 1.1 3.6 2.4 4.3 5.7 8.4 11.5 12.7 17.2 7 9.4 14 18.9 21 28.5C287.4 246.1 288.1 246.9 289.3 248.4z"/><path class="st3" d="M322.2 240.9c0-12.6 0-25.2 0-37.8 0-0.9 0-1.9 0.1-2.7 0.3-1.7 1.4-2.9 3.1-3.1 0.4-0.1 1 0 1.6 0 16.5 0 32.9 0 49.4 0 0.4 0 0.9 0 1.3 0 2.3 0.1 3.6 1.4 3.7 3.7 0.1 4.3 0.1 8.6 0 12.9 -0.1 2.6-1.4 3.6-4.3 3.7 -10.3 0-20.6 0-30.8 0 -0.7 0-1.4 0-2.1 0 -1.4-0.1-1.7 0.6-1.7 1.9 0 3.1 0 6.3 0 9.4 0 2.3 0 2.3 2.3 2.3 9.7 0 19.5 0 29.3 0 1.1 0 2.3 0 3.3 0 2.6 0.3 3.9 1.4 4 4 0.1 4 0.1 8.2 0 12.2 -0.1 2.6-1.3 3.7-4 4 -1.1 0.1-2.4 0-3.7 0 -9.7 0-19.3 0-29.1 0 -2.1 0-2.3 0-2.3 2.1 0 3.1 0.1 6.3 0 9.4 0 1.7 0.6 2 2.1 2 10.2 0 20.3 0.1 30.5-0.1 5.7-0.1 6.6 1.6 6.4 6.3 -0.1 3.1 0 6.3 0 9.4 -0.1 3.1-1.3 4.4-4.4 4.4 -16.7 0-33.6 0-50.4 0 -3.3 0-4.4-1.3-4.4-4.9C322.2 267.1 322.2 254 322.2 240.9z"/><path class="st3" d="M129.5 240.9c0-12.5 0-24.8 0-37.2 0-0.9 0-1.9 0-2.7 0.3-2.6 1.4-3.9 4.2-3.9 4 0 8.2-0.1 12.2 0 2.4 0 3.7 1.3 4 3.7 0.1 0.9 0 1.9 0 2.7 0 19.3 0 38.7 0 58 0 3.7-0.3 3.3 3.3 3.3 9.9 0 19.8 0 29.6 0 0.9 0 1.6 0 2.4 0 2.1 0.1 3.4 1.3 3.4 3.4 0.1 4.4 0.1 8.7 0 13.2 0 2.3-1.4 3.4-3.7 3.6 -0.7 0-1.4 0-2.1 0 -15.7 0-31.5 0-47.2 0 -0.9 0-1.6 0-2.4 0 -2-0.1-3.1-1.3-3.4-3.3 -0.1-1-0.1-2-0.1-3C129.5 266.1 129.5 253.5 129.5 240.9z"/><path class="st3" d="M199.9 241.1c0-12.6 0-25.2 0-37.8 0-0.9 0-1.6 0-2.4 0.1-2.3 1.3-3.6 3.6-3.6 4.3-0.1 8.6-0.1 12.9 0 2.1 0 3.4 1.3 3.7 3.3 0.1 0.9 0 1.9 0 2.7 0 25.2 0 50.5 0 75.7 0 0.6 0 1.3 0 1.9 -0.1 3-1.4 4.2-4.4 4.3 -3.7 0-7.6 0-11.3 0 -3.4 0-4.6-1-4.6-4.6C199.9 267.4 199.9 254.2 199.9 241.1z"/><path class="st1" d="M289.3 248.4c0-1.7 0-2.7 0-3.7 0-13.7 0-27.5 0-41.2 0-0.9 0-1.6 0-2.4 0.1-2.4 1.4-3.9 3.7-3.9 4.3-0.1 8.6-0.1 12.9 0 2.3 0 3.4 1.4 3.6 3.7 0 0.6 0 1.3 0 1.9 0 25.6 0 51.3 0 76.9 0 0.6 0 1.3 0 1.9 -0.1 2.3-1.3 3.6-3.6 3.7 -4.3 0.1-8.6 0-12.9 0 -1.7 0-2.7-1-3.7-2.3 -3.9-5.3-7.7-10.5-11.6-15.7 -7.6-10.2-15.2-20.5-22.8-30.6 -0.4-0.6-0.9-1.4-1.7-1.9 -0.6 1-0.3 2.1-0.3 3.1 0 13.6 0 27.3 0 40.9 0 5.9-0.6 6.4-6.4 6.4 -3 0-6.2 0-9.2 0 -3.4 0-4.7-1.3-4.7-4.9 0-7.6 0-15.3 0-22.9 0-18.2 0-36.2 0-54.4 0-0.9 0-1.6 0-2.4 0.3-2 1.6-3.4 3.6-3.4 4.4-0.1 8.7 0 13.2 0 1.7 0 2.7 1.1 3.6 2.4 4.3 5.7 8.4 11.5 12.7 17.2 7 9.4 14 18.9 21 28.5C287.4 246.1 288.1 246.9 289.3 248.4z"/><path class="st1" d="M322.2 240.9c0-12.6 0-25.2 0-37.8 0-0.9 0-1.9 0.1-2.7 0.3-1.7 1.4-2.9 3.1-3.1 0.4-0.1 1 0 1.6 0 16.5 0 32.9 0 49.4 0 0.4 0 0.9 0 1.3 0 2.3 0.1 3.6 1.4 3.7 3.7 0.1 4.3 0.1 8.6 0 12.9 -0.1 2.6-1.4 3.6-4.3 3.7 -10.3 0-20.6 0-30.8 0 -0.7 0-1.4 0-2.1 0 -1.4-0.1-1.7 0.6-1.7 1.9 0 3.1 0 6.3 0 9.4 0 2.3 0 2.3 2.3 2.3 9.7 0 19.5 0 29.3 0 1.1 0 2.3 0 3.3 0 2.6 0.3 3.9 1.4 4 4 0.1 4 0.1 8.2 0 12.2 -0.1 2.6-1.3 3.7-4 4 -1.1 0.1-2.4 0-3.7 0 -9.7 0-19.3 0-29.1 0 -2.1 0-2.3 0-2.3 2.1 0 3.1 0.1 6.3 0 9.4 0 1.7 0.6 2 2.1 2 10.2 0 20.3 0.1 30.5-0.1 5.7-0.1 6.6 1.6 6.4 6.3 -0.1 3.1 0 6.3 0 9.4 -0.1 3.1-1.3 4.4-4.4 4.4 -16.7 0-33.6 0-50.4 0 -3.3 0-4.4-1.3-4.4-4.9C322.2 267.1 322.2 254 322.2 240.9z"/><path class="st1" d="M129.5 240.9c0-12.5 0-24.8 0-37.2 0-0.9 0-1.9 0-2.7 0.3-2.6 1.4-3.9 4.2-3.9 4 0 8.2-0.1 12.2 0 2.4 0 3.7 1.3 4 3.7 0.1 0.9 0 1.9 0 2.7 0 19.3 0 38.7 0 58 0 3.7-0.3 3.3 3.3 3.3 9.9 0 19.8 0 29.6 0 0.9 0 1.6 0 2.4 0 2.1 0.1 3.4 1.3 3.4 3.4 0.1 4.4 0.1 8.7 0 13.2 0 2.3-1.4 3.4-3.7 3.6 -0.7 0-1.4 0-2.1 0 -15.7 0-31.5 0-47.2 0 -0.9 0-1.6 0-2.4 0 -2-0.1-3.1-1.3-3.4-3.3 -0.1-1-0.1-2-0.1-3C129.5 266.1 129.5 253.5 129.5 240.9z"/><path class="st1" d="M199.9 241.1c0-12.6 0-25.2 0-37.8 0-0.9 0-1.6 0-2.4 0.1-2.3 1.3-3.6 3.6-3.6 4.3-0.1 8.6-0.1 12.9 0 2.1 0 3.4 1.3 3.7 3.3 0.1 0.9 0 1.9 0 2.7 0 25.2 0 50.5 0 75.7 0 0.6 0 1.3 0 1.9 -0.1 3-1.4 4.2-4.4 4.3 -3.7 0-7.6 0-11.3 0 -3.4 0-4.6-1-4.6-4.6C199.9 267.4 199.9 254.2 199.9 241.1z"/></svg>