<svg xmlns="http://www.w3.org/2000/svg" viewBox="0 0 512 512"><style type="text/css">  
	.st0{fill:#01AEF2;}
	.st1{opacity:0.3;fill:#221F20;enable-background:new    ;}
	.st2{fill:#FFFFFF;}
</style><path class="st0" d="M512 395.1c0 64.6-52.3 116.9-116.9 116.9H116.9C52.3 512 0 459.7 0 395.1V117C0 52.4 52.4 0 117 0h276.3C458.9 0 512 53.1 512 118.7V395.1z"/><path class="st1" d="M385.6 130h-0.2C352.6 98.3 307.6 78.7 258 78.7c-10.6 0-21 0.9-31.1 2.6 -16.2-10.1-35.3-16-56-16 -58.2 0-105.5 46.6-105.5 104 0 19.3 5.2 37.2 14.5 52.6 -2.4 11.6-3.7 23.8-3.7 36 0 47.1 18.5 89.9 48.6 121.9v0.3l126.6 131.8c0 0 127.3 0 141.6 0 86.5 0 118.9-76.8 118.9-112.6 0-40.7 0-147.8 0-147.8L385.6 130z"/><path class="st2" d="M170.8 65.3c-58.2 0-105.5 46.6-105.5 104 0 19.3 5.2 37.2 14.5 52.6 -2.4 11.6-3.7 23.8-3.7 36 0 99.1 81.5 179.3 181.9 179.3 11.4 0 22.6-1 33.3-3 14.9 7.8 31.9 12.3 49.9 12.3 58.3 0 105.5-46.6 105.5-104 0.1-16.6-3.9-32.3-10.9-46.2 2.8-12.4 4.2-25.3 4.2-38.4 0-99-81.5-179.3-182-179.3 -10.6 0-21 0.9-31.1 2.6C210.6 71.2 191.5 65.3 170.8 65.3zM256.5 131.7c16.3 0 30.5 1.9 42.4 5.4 12 3.7 22.1 8.6 30.1 14.9 7.9 6.1 13.9 12.6 17.7 19.6 3.8 6.9 5.7 13.7 5.7 20.5 0 6.3-2.5 12.2-7.4 17.3 -4.9 5-11.2 7.7-18.7 7.7 -6.7 0-12-1.6-15.8-4.8 -3.4-3-6.9-7.6-10.8-14.3 -4.6-8.4-10-15.2-16.3-20 -6.1-4.6-16.4-6.9-30.4-6.9 -13 0-23.7 2.6-31.5 7.7 -7.5 4.8-11.2 10.5-11.2 17.2 0 4.1 1.2 7.4 3.7 10.4 2.6 3.1 6.1 5.8 10.8 8.1 4.8 2.4 9.7 4.2 14.6 5.5 5 1.4 13.5 3.5 25.2 6 14.8 3.1 28.3 6.7 40.2 10.3 12.1 3.9 22.6 8.5 31.1 13.9 8.7 5.5 15.7 12.8 20.6 21.4 4.9 8.5 7.3 19.3 7.3 31.6 0.4 15-3.9 28.5-12.4 40.2 -8.4 11.7-20.9 21-36.9 27.6 -16 6.5-35 9.8-56.9 9.8 -26.1 0-48-4.5-65.1-13.4 -12.2-6.5-22.3-15.4-30-26.3s-11.6-21.9-11.6-32.3c0-6.5 2.6-12.2 7.6-17 4.9-4.6 11.4-6.9 19-6.9 6.2 0 11.6 1.8 16 5.4 4.2 3.5 7.7 8.6 10.6 15.4 3.3 7.2 6.8 13.3 10.5 18.3 3.6 4.7 8.6 8.5 15.2 11.6 6.6 3.1 15.5 4.7 26.4 4.7 15 0 27.3-3.2 36.5-9.4 9.1-6 13.5-13.4 13.5-22.4 0-7-2.3-12.6-7-17 -4.9-4.6-11.4-8.1-19.5-10.5 -8.2-2.6-19.5-5.3-33.3-8.2 -18.9-4-34.8-8.7-47.7-14 -13-5.4-23.6-13-31.3-22.5 -7.8-9.6-11.7-21.8-11.7-35.9 0-13.6 4.2-25.7 12.3-36.2 8.1-10.4 20-18.6 35.3-24.1C218.2 134.5 236.2 131.7 256.5 131.7z"/></svg>